<?xml version="1.0" encoding="UTF-8" standalone="no"?>
<!-- Created with Inkscape (http://www.inkscape.org/) -->

<svg
   xmlns:dc="http://purl.org/dc/elements/1.1/"
   xmlns:cc="http://creativecommons.org/ns#"
   xmlns:rdf="http://www.w3.org/1999/02/22-rdf-syntax-ns#"
   xmlns:svg="http://www.w3.org/2000/svg"
   xmlns="http://www.w3.org/2000/svg"
   version="1.1"
   width="60.113167"
   height="60.113167"
   id="svg3204"
   xml:space="preserve"><metadata
     id="metadata3210"><rdf:RDF><cc:Work
         rdf:about=""><dc:format>image/svg+xml</dc:format><dc:type
           rdf:resource="http://purl.org/dc/dcmitype/StillImage" /><dc:title></dc:title></cc:Work></rdf:RDF></metadata><defs
     id="defs3208"><clipPath
       id="clipPath3222"><path
         d="m 0,141.731 453.542,0 L 453.542,0 0,0 0,141.731 z"
         id="path3224" /></clipPath></defs><g
     transform="matrix(1.25,0,0,-1.25,-102.26269,116.61153)"
     id="g3212"><path
       d="m 311.20793,58.554093 2.9927,0 0,21.373403 -2.9927,0 0,-21.373403 z"
       id="path3216"
       style="fill:#333;fill-opacity:1;fill-rule:nonzero;stroke:none" /><g
       transform="matrix(0.7540183,0,0,0.7540183,120.52899,93.289227)"
       id="g3320"><path
         d="m 0,0 -39.912,0 c -4.635,0 -9.421,-2.941 -11.438,-7.619 8.139,0.789 34.058,3.926 35.962,-16.26 4.406,-1.142 12.527,-6.223 17.714,-13.574 -18.072,-1.322 -27.574,-19.59 -52.16,-21.293 2.407,-3.15 6.213,-5.033 9.922,-5.033 l 39.912,0 c 6.081,0 12.43,5.056 12.43,12.463 l 0,38.849 C 12.43,-5.061 6.081,0 0,0"
         id="path3322"
         style="fill:#f05a23;fill-opacity:1;fill-rule:nonzero;stroke:none" /></g><g
       transform="matrix(0.7540183,0,0,0.7540183,97.579312,75.220762)"
       id="g3324"><path
         d="m 0,0 c 0,3.744 -3.03,6.777 -6.77,6.777 -3.739,0 -6.77,-3.033 -6.77,-6.777 0,-3.742 3.031,-6.777 6.77,-6.777 C -3.03,-6.777 0,-3.742 0,0"
         id="path3326"
         style="fill:#f05a23;fill-opacity:1;fill-rule:nonzero;stroke:none" /></g></g></svg>