<?xml version="1.0" encoding="UTF-8" standalone="no"?>
<!-- Created with Inkscape (http://www.inkscape.org/) -->

<svg
   xmlns:dc="http://purl.org/dc/elements/1.1/"
   xmlns:cc="http://creativecommons.org/ns#"
   xmlns:rdf="http://www.w3.org/1999/02/22-rdf-syntax-ns#"
   xmlns:svg="http://www.w3.org/2000/svg"
   xmlns="http://www.w3.org/2000/svg"
   version="1.1"
   width="354"
   height="60.113167"
   id="svg3204"
   xml:space="preserve"><metadata
     id="metadata3210"><rdf:RDF><cc:Work
         rdf:about=""><dc:format>image/svg+xml</dc:format><dc:type
           rdf:resource="http://purl.org/dc/dcmitype/StillImage" /><dc:title></dc:title></cc:Work></rdf:RDF></metadata><defs
     id="defs3208"><clipPath
       id="clipPath3222"><path
         d="m 0,141.731 453.542,0 L 453.542,0 0,0 0,141.731 z"
         id="path3224" /></clipPath></defs><g
     transform="matrix(1.25,0,0,-1.25,-102.26269,116.61153)"
     id="g3212"><path
       d="m 311.20793,58.554093 2.9927,0 0,21.373403 -2.9927,0 0,-21.373403 z"
       id="path3216"
       style="fill:#f05a23;fill-opacity:1;fill-rule:nonzero;stroke:none" /><g
       transform="matrix(0.7540183,0,0,0.7540183,155.36773,77.001301)"
       id="g3226"><path
         d="m 0,0 16.006,0.002 c 1.333,0 2.187,-0.85 2.689,-2.523 l 0.2,-0.67 3.715,1.113 -0.2,0.668 C 21.031,3.191 18.207,3.879 16.645,3.879 L 0.081,3.877 c -2.705,0 -5.529,-2.25 -5.529,-5.541 l 0,-1.857 c 0,-1.752 0.701,-4.858 5.396,-5.987 l 16.73,-3.92 c 0.394,-0.08 2.357,-0.556 2.357,-2.006 l 0,-3.189 c 0,-1.141 -0.828,-1.967 -1.968,-1.967 l -16.691,0.002 c -0.857,0 -1.547,0.85 -2.049,2.524 l -0.199,0.669 -3.717,-1.113 0.201,-0.67 c 1.378,-4.601 4.203,-5.289 5.764,-5.289 l 16.691,-0.002 c 3.279,0 5.847,2.567 5.847,5.846 l 0,3.189 c 0,2.848 -2.144,5.125 -5.442,5.801 L 0.831,-5.732 c -2.4,0.582 -2.4,1.601 -2.4,2.211 l 0,1.806 C -1.569,-0.637 -0.777,0 0,0"
         id="path3228"
         style="fill:#f05a23;fill-opacity:1;fill-rule:nonzero;stroke:none" /></g><g
       transform="matrix(0.7540183,0,0,0.7540183,235.37691,77.001301)"
       id="g3230"><path
         d="m 0,0 16.006,0.002 c 1.333,0 2.187,-0.85 2.689,-2.523 l 0.2,-0.67 3.715,1.113 -0.2,0.668 C 21.031,3.191 18.207,3.879 16.645,3.879 L 0.081,3.877 c -2.705,0 -5.529,-2.25 -5.529,-5.541 l 0,-1.857 c 0,-1.752 0.701,-4.858 5.396,-5.987 l 16.73,-3.92 c 0.394,-0.08 2.357,-0.556 2.357,-2.006 l 0,-3.189 c 0,-1.141 -0.828,-1.967 -1.968,-1.967 l -16.691,0.002 c -0.857,0 -1.547,0.85 -2.049,2.524 l -0.199,0.669 -3.717,-1.113 0.201,-0.67 c 1.378,-4.601 4.203,-5.289 5.764,-5.289 l 16.691,-0.002 c 3.279,0 5.847,2.567 5.847,5.846 l 0,3.189 c 0,2.848 -2.144,5.125 -5.442,5.801 L 0.831,-5.732 c -2.4,0.582 -2.4,1.601 -2.4,2.211 l 0,1.806 C -1.569,-0.637 -0.777,0 0,0"
         id="path3232"
         style="fill:#f05a23;fill-opacity:1;fill-rule:nonzero;stroke:none" /></g><g
       transform="matrix(0.7540183,0,0,0.7540183,323.7649,77.001301)"
       id="g3234"><path
         d="m 0,0 16.005,0.002 c 1.334,0 2.187,-0.85 2.689,-2.523 l 0.201,-0.67 3.715,1.113 -0.201,0.668 C 21.031,3.191 18.206,3.879 16.644,3.879 L 0.08,3.877 c -2.704,0 -5.529,-2.25 -5.529,-5.541 l 0,-1.857 c 0,-1.752 0.701,-4.858 5.396,-5.987 l 16.731,-3.92 c 0.393,-0.08 2.357,-0.556 2.357,-2.006 l 0,-3.189 c 0,-1.141 -0.828,-1.967 -1.968,-1.967 l -16.691,0.002 c -0.857,0 -1.548,0.85 -2.049,2.524 l -0.2,0.669 -3.717,-1.113 0.201,-0.67 c 1.379,-4.601 4.203,-5.289 5.765,-5.289 l 16.691,-0.002 c 3.279,0 5.847,2.567 5.847,5.846 l 0,3.189 c 0,2.848 -2.144,5.125 -5.442,5.801 L 0.831,-5.732 c -2.4,0.582 -2.4,1.601 -2.4,2.211 l 0,1.806 C -1.569,-0.637 -0.777,0 0,0"
         id="path3236"
         style="fill:#f05a23;fill-opacity:1;fill-rule:nonzero;stroke:none" /></g><g
       transform="matrix(0.7540183,0,0,0.7540183,223.19401,61.325939)"
       id="g3238"><path
         d="m 0,0 -2.537,0 c -0.401,0 -1.08,0 -1.731,1.369 -0.148,0.313 -9.093,18.906 -9.253,19.274 -1.42,3.293 -3.617,4.027 -5.295,4.027 l -6.339,0 0,-28.342 3.879,0 0,24.563 2.46,0 c 0.311,0 1.088,0 1.823,-1.879 0.077,-0.199 8.927,-18.428 9.118,-18.854 1.41,-3.123 3.625,-3.83 5.338,-3.83 l 6.416,0 0,28.344 L 0,24.672 0,0 z"
         id="path3240"
         style="fill:#f05a23;fill-opacity:1;fill-rule:nonzero;stroke:none" /></g><g
       transform="matrix(0.7540183,0,0,0.7540183,181.96308,76.995344)"
       id="g3242"><path
         d="m 0,0 16.732,0 c 0.778,0 1.57,-0.637 1.57,-1.715 l -0.01,-5.896 c 0,-1.078 -0.792,-1.715 -1.569,-1.715 L -1.555,-9.33 -1.568,-1.715 C -1.568,-0.637 -0.777,0 0,0 m 16.642,-13.078 c 2.705,0 5.529,2.248 5.529,5.539 l 0.01,5.875 c 0,3.291 -2.825,5.539 -5.53,5.539 l -16.555,0 c -2.703,0 -5.529,-2.248 -5.529,-5.539 l 0,-1.859 10e-4,0 -0.004,-15.393 c 0,-3.291 2.825,-5.539 5.529,-5.539 l 15.838,-0.004 c 1.561,0 4.387,0.686 5.765,5.293 l 0.201,0.67 -3.716,1.113 -0.202,-0.67 c -0.5,-1.676 -1.19,-2.525 -2.049,-2.525 L 6.396,-20.58 0,-20.592 c -0.777,0 -1.568,0.635 -1.568,1.715 l 0,5.789 18.21,0.01 z"
         id="path3244"
         style="fill:#f05a23;fill-opacity:1;fill-rule:nonzero;stroke:none" /></g><g
       transform="matrix(0.7540183,0,0,0.7540183,275.12114,61.47908)"
       id="g3246"><path
         d="m 0,0 -17.224,0 c -0.777,0 -1.568,0.637 -1.568,1.715 l -0.016,17.164 c 0,1.078 0.791,1.715 1.569,1.715 l 17.223,0 c 0.778,0 1.569,-0.637 1.569,-1.715 L 1.568,1.715 C 1.568,0.637 0.777,0 0,0 m -0.096,24.471 -17.048,0 c -2.703,0 -5.528,-2.25 -5.528,-5.541 l 0,-17.266 c 0,-3.291 2.825,-5.539 5.528,-5.539 l 17.048,0 c 2.703,0 5.529,2.248 5.529,5.539 l 0,17.266 c 0,3.291 -2.826,5.541 -5.529,5.541"
         id="path3248"
         style="fill:#f05a23;fill-opacity:1;fill-rule:nonzero;stroke:none" /></g><g
       transform="matrix(0.7540183,0,0,0.7540183,287.73406,76.98803)"
       id="g3250"><path
         d="m 0,0 17.678,0.025 c 0.777,0 1.568,-0.636 1.568,-1.714 l 0.007,-6.17 c 0,-0.502 -0.073,-2.067 -2.192,-2.096 L 0,-9.955 0,0 z m 20.189,-24.457 5.778,0 -11.309,10.812 1.52,0 c 1.426,0 6.953,0.711 6.953,6.018 l -0.005,5.988 c 0,3.291 -2.825,5.541 -5.528,5.541 L -3.88,3.9 l 0,-28.343 3.88,0 0,10.798 8.951,0 11.238,-10.812 z"
         id="path3252"
         style="fill:#f05a23;fill-opacity:1;fill-rule:nonzero;stroke:none" /></g><g
       transform="matrix(0.7540183,0,0,0.7540183,342.91213,79.929003)"
       id="g3254"><path
         d="m 0,0 0,-3.875 12.716,0 0,-24.469 3.879,0 0,24.469 12.712,0 0,3.875 L 0,0 z"
         id="path3256"
         style="fill:#f05a23;fill-opacity:1;fill-rule:nonzero;stroke:none" /></g><g
       transform="matrix(0.7540183,0,0,0.7540183,120.52899,93.289227)"
       id="g3320"><path
         d="m 0,0 -39.912,0 c -4.635,0 -9.421,-2.941 -11.438,-7.619 8.139,0.789 34.058,3.926 35.962,-16.26 4.406,-1.142 12.527,-6.223 17.714,-13.574 -18.072,-1.322 -27.574,-19.59 -52.16,-21.293 2.407,-3.15 6.213,-5.033 9.922,-5.033 l 39.912,0 c 6.081,0 12.43,5.056 12.43,12.463 l 0,38.849 C 12.43,-5.061 6.081,0 0,0"
         id="path3322"
         style="fill:#f05a23;fill-opacity:1;fill-rule:nonzero;stroke:none" /></g><g
       transform="matrix(0.7540183,0,0,0.7540183,97.579312,75.220762)"
       id="g3324"><path
         d="m 0,0 c 0,3.744 -3.03,6.777 -6.77,6.777 -3.739,0 -6.77,-3.033 -6.77,-6.777 0,-3.742 3.031,-6.777 6.77,-6.777 C -3.03,-6.777 0,-3.742 0,0"
         id="path3326"
         style="fill:#f05a23;fill-opacity:1;fill-rule:nonzero;stroke:none" /></g></g></svg>